# xmcd CD database file
#
# Track frame offsets:
#	150
#	21462
#	40440
#	59797
#	76847
#	102172
#	123480
#	146387
#	168312
#	184420
#	208087
#	241842
#	264887
#	287067
#
# Disc length: 4191 seconds
#
# Revision: 1
# Processed by: cddbd v1.4b41PL3 Copyright (c) Steve Scherf et al.
# Submitted via: CDex 1.40Beta4
#
DISCID=cc105d0e
DTITLE=Love Among Freaks - Representin' Planet Earth
DYEAR=1900
DGENRE=Blues
TTITLE0=Wreck Yo Mind
TTITLE1=Higher Plane
TTITLE2=Representin' Planet Earth
TTITLE3=Tenfold
TTITLE4=Bad Situation
TTITLE5=Smokin
TTITLE6=Maybe I Know
TTITLE7=Don't U Forget
TTITLE8=Pause
TTITLE9=Click, POW
TTITLE10=Butta Joint
TTITLE11=Alpha Freak
TTITLE12=Take a Pill
TTITLE13=Freaks to the Bone
EXTD=ID3G:   0
EXTT0=
EXTT1=
EXTT2=
EXTT3=
EXTT4=
EXTT5=
EXTT6=
EXTT7=
EXTT8=
EXTT9=
EXTT10=
EXTT11=
EXTT12=
EXTT13=
PLAYORDER=
